<?xml version="1.0" encoding="UTF-8"?>
<svg id="Layer_1" data-name="Layer 1" xmlns="http://www.w3.org/2000/svg" viewBox="0 0 950 950">
  <defs>
    <style>
      .cls-1 {
        fill: #0000fe;
        stroke: #0000fe;
        stroke-miterlimit: 22.93;
        stroke-width: 5.67px;
      }

      .cls-1, .cls-2, .cls-3, .cls-4, .cls-5, .cls-6 {
        fill-rule: evenodd;
      }

      .cls-2 {
        fill: #fff;
      }

      .cls-3, .cls-7 {
        fill: #fff000;
      }

      .cls-4 {
        fill: #009844;
      }

      .cls-5 {
        fill: #e50013;
      }

      .cls-6 {
        fill: #231916;
      }
    </style>
  </defs>
  <path class="cls-1" d="m584.35,692.34c-34.02,17.46-71.71,26.57-110.35,26.57s-73.67-8.47-106.78-24.77l107.92,151.06,109.2-152.85h0Zm106.25-323.71c16.77,33.5,25.47,70.41,25.47,108.2s-8.55,74.04-25.04,107.32l168.02-106.38-168.45-109.14h0ZM475.15,105.46l-111,155.59c33.9-17.29,71.41-26.3,109.85-26.3s78.69,9.69,113.5,28.21l-112.35-157.5h0Zm-219.22,476.58c-15.82-32.72-24.01-68.57-24.01-105.21s8.33-73.09,24.41-106.03l-165.1,106.97,164.69,104.27Z"/>
  <path class="cls-5" d="m475.15,13.83c254.88,0,461.49,206.62,461.49,461.49s-206.62,461.49-461.49,461.49S13.66,730.2,13.66,475.32,220.27,13.83,475.15,13.83h0Zm0,32.35c-237.01,0-429.14,192.13-429.14,429.14s192.13,429.14,429.14,429.14,429.14-192.13,429.14-429.14S712.16,46.18,475.15,46.18Z"/>
  <path class="cls-5" d="m475.15,64c227.17,0,411.32,184.15,411.32,411.32s-184.15,411.32-411.32,411.32S63.83,702.49,63.83,475.32,247.98,64,475.15,64h0Zm0,15.9c-218.39,0-395.42,177.04-395.42,395.42s177.04,395.42,395.42,395.42,395.42-177.04,395.42-395.42S693.54,79.9,475.15,79.9Z"/>
  <path class="cls-5" d="m474,241.01c130.24,0,235.82,105.58,235.82,235.82s-105.58,235.82-235.82,235.82-235.82-105.58-235.82-235.82,105.58-235.82,235.82-235.82h0Zm0,7.95c-125.85,0-227.87,102.02-227.87,227.87s102.02,227.87,227.87,227.87,227.87-102.02,227.87-227.87-102.02-227.87-227.87-227.87Z"/>
  <path class="cls-5" d="m474,301.07c97.07,0,175.76,78.69,175.76,175.76s-78.69,175.76-175.76,175.76-175.76-78.69-175.76-175.76,78.69-175.76,175.76-175.76h0Zm0,7.51c-92.92,0-168.25,75.33-168.25,168.25s75.32,168.25,168.25,168.25,168.25-75.33,168.25-168.25-75.33-168.25-168.25-168.25Z"/>
  <path class="cls-1" d="m614.85,279.95c21.59,15.48,40.55,34.44,56.03,56.03v-56.03h-56.03Zm56.03,337.73c-14.6,20.37-32.31,38.4-52.4,53.38h52.4v-53.38h0Zm-341.36,53.38c-20.1-14.98-37.8-33.01-52.4-53.38v53.38h52.4Zm-52.4-391.11v56.03c15.48-21.59,34.44-40.55,56.03-56.03h-56.03Z"/>
  <path class="cls-6" d="m265.52,540.51l-1.44-6.24,16.7-3.85c2.65-.61,4.35-1.09,5.1-1.42,1.2-.56,2.08-1.42,2.61-2.58.54-1.17.61-2.62.21-4.34-.4-1.74-1.07-2.98-2-3.7-.93-.72-1.93-1.05-3.03-.99-1.1.06-2.86.37-5.3.94l-17.05,3.94-1.44-6.24,16.2-3.74c3.7-.85,6.36-1.29,7.96-1.31,1.61-.02,3.04.3,4.3.96,1.26.65,2.37,1.67,3.34,3.03.97,1.37,1.74,3.26,2.3,5.69.68,2.93.85,5.23.52,6.9-.33,1.67-.94,3.07-1.82,4.21-.89,1.13-1.89,1.97-3.02,2.53-1.67.82-4.23,1.62-7.68,2.42l-16.45,3.8h0Zm23.06-46.07l-31.61.76-.15-6.2,20.87-13.52-21.18.51-.14-5.92,31.61-.76.15,6.39-20.47,13.31,20.78-.5.14,5.92h0Zm.89-39.42l-31.36-4.03.82-6.35,31.36,4.03-.82,6.35h0Zm5.46-27.83l-33.51,2.16,1.91-6.65,24.71-1.27-20.38-13.86,1.87-6.54,27.3,19.52-1.9,6.63h0Zm9.77-27.48l-28.12-14.45,10.7-20.82,4.75,2.44-7.77,15.12,6.25,3.21,7.23-14.06,4.75,2.44-7.23,14.06,7.62,3.92,8.06-15.67,4.75,2.44-10.98,21.37h0Zm18.4-32.47l4.2-4.84-9.97-8.65.85-.98c.96-1.11,1.76-1.85,2.38-2.21.62-.36,1.37-.55,2.25-.59.88-.04,2.79.12,5.72.49l8.21,1.06,5-5.77-7.19-1.13c-2.85-.47-4.94-.68-6.25-.63-1.31.04-2.72.32-4.23.83,1.51-2.36,2.13-4.56,1.88-6.62-.26-2.06-1.28-3.87-3.08-5.43-1.41-1.22-2.97-1.96-4.67-2.22-1.7-.26-3.26,0-4.7.8-1.43.78-3.26,2.45-5.47,5.01l-8.81,10.16,23.89,20.72h0Zm-9.58-16.79l-6.07-5.27,3.26-3.76c1.69-1.95,2.74-3.1,3.14-3.45.8-.67,1.64-1,2.51-1,.87,0,1.7.35,2.51,1.05.72.62,1.18,1.3,1.37,2.05.2.74.14,1.49-.16,2.23-.31.75-1.46,2.27-3.46,4.59l-3.1,3.57h0Zm28.79-19.48l4.51-4.34c1.58,1.41,3.11,2.14,4.62,2.2,1.5.06,3.01-.51,4.53-1.7,1.61-1.26,2.55-2.56,2.83-3.89.28-1.32.06-2.45-.66-3.36-.46-.59-1.03-.95-1.7-1.1-.66-.14-1.55-.03-2.64.34-.75.25-2.36.94-4.85,2.06-3.21,1.44-5.73,2.09-7.58,1.97-2.6-.17-4.67-1.25-6.22-3.22-1-1.27-1.58-2.74-1.73-4.41-.15-1.67.22-3.32,1.11-4.96.89-1.64,2.28-3.2,4.19-4.7,3.11-2.44,5.99-3.6,8.65-3.45,2.66.14,4.93,1.34,6.83,3.58l-4.9,4.13c-1.22-1.12-2.4-1.68-3.55-1.69-1.14-.01-2.42.53-3.82,1.64-1.45,1.14-2.34,2.33-2.69,3.57-.22.8-.08,1.53.43,2.17.46.59,1.11.9,1.93.92,1.05.04,3.02-.61,5.91-1.95,2.89-1.34,5.16-2.16,6.8-2.46,1.66-.3,3.23-.18,4.73.37,1.5.55,2.87,1.61,4.1,3.18,1.12,1.42,1.78,3.07,1.96,4.94.19,1.87-.2,3.67-1.18,5.41-.97,1.75-2.54,3.47-4.69,5.16-3.14,2.47-6.12,3.65-8.95,3.52-2.82-.12-5.48-1.45-7.99-3.96h0Zm37.75-14.51l5.54-3.21-15.83-27.37-5.54,3.21,15.83,27.37h0Zm24.59-12.05l-9.57-24.47-8.72,3.41-1.95-4.98,23.36-9.13,1.95,4.98-8.68,3.39,9.57,24.47-5.96,2.33h0Zm51.09-13.15l-6.79,1.23-3.97-6.6-12.48,2.27-1.3,7.55-6.66,1.21,6.43-33.3,6.65-1.21,18.11,28.85h0Zm-13.76-10.25l-6.41-10.73-2.11,12.28,8.52-1.55h0Zm23.65-.56l6.24-.44c.32,2.09,1.02,3.64,2.14,4.65,1.11,1.01,2.64,1.54,4.57,1.59,2.05.06,3.6-.33,4.66-1.17,1.06-.84,1.61-1.84,1.65-3,.02-.75-.18-1.39-.6-1.93-.42-.53-1.17-1.01-2.25-1.43-.74-.29-2.42-.79-5.05-1.53-3.38-.95-5.74-2.06-7.09-3.34-1.89-1.8-2.79-3.95-2.72-6.46.05-1.61.54-3.11,1.49-4.49.95-1.38,2.29-2.41,4.03-3.1,1.73-.69,3.8-1,6.23-.93,3.95.11,6.91,1.07,8.85,2.88,1.95,1.81,2.93,4.18,2.95,7.12l-6.41.04c-.23-1.64-.78-2.83-1.65-3.56-.87-.74-2.2-1.14-3.98-1.19-1.84-.05-3.29.29-4.35,1.03-.68.47-1.04,1.12-1.06,1.94-.02.75.28,1.4.9,1.95.78.71,2.71,1.47,5.79,2.29,3.08.82,5.34,1.64,6.8,2.47,1.46.83,2.6,1.93,3.4,3.31.8,1.38,1.17,3.07,1.12,5.07-.05,1.81-.6,3.5-1.65,5.05-1.05,1.55-2.5,2.69-4.37,3.4-1.86.72-4.17,1.04-6.91.96-4-.11-7.04-1.12-9.13-3.02-2.09-1.9-3.29-4.62-3.61-8.16h0Zm50.6,15.19l8.55-30.44,9.86,2.77c3.73,1.05,6.12,1.88,7.17,2.5,1.61.95,2.79,2.35,3.54,4.21.75,1.86.78,4,.1,6.43-.53,1.87-1.31,3.34-2.34,4.43-1.04,1.08-2.18,1.84-3.42,2.28-1.25.43-2.44.61-3.59.55-1.55-.12-3.71-.57-6.49-1.35l-4-1.12-3.22,11.48-6.16-1.73h0Zm13.27-23.56l-2.44,8.67,3.35.94c2.42.68,4.07.97,4.97.88.9-.09,1.68-.41,2.34-.97.65-.55,1.11-1.27,1.36-2.18.31-1.11.24-2.12-.2-3.02-.45-.91-1.14-1.59-2.08-2.05-.69-.34-2.14-.82-4.35-1.44l-2.95-.83h0Zm44.42,47.05l3.06-33.92-6.03-3.07-25.29,22.61,6.03,3.07,5.61-5.22,11.3,5.75-.83,7.65,6.15,3.13h0Zm-4.74-16.49l-7.72-3.93,9.11-8.49-1.39,12.42h0Zm14,22.9l20.72-23.89,7.24,6.28-9.85,20,18.36-12.62,7.26,6.3-20.72,23.89-4.47-3.88,16.29-18.82-21.02,14.72-4.65-4.03,11.62-22.87-16.33,18.79-4.47-3.88h0Zm58.55,12.02l-13.74,9.81c-2.88,2.06-4.94,3.78-6.17,5.18-.83.95-1.44,2.1-1.82,3.49-.38,1.39-.41,2.91-.07,4.58.33,1.67,1.38,3.73,3.13,6.18,1.45,2.03,2.89,3.48,4.31,4.37,1.42.89,2.83,1.4,4.25,1.51,1.42.13,2.86-.13,4.34-.76,1.48-.63,3.76-2.05,6.85-4.26l13.53-9.66-3.72-5.21-14.24,10.17c-2.04,1.45-3.55,2.42-4.53,2.9-.99.48-2.04.56-3.18.25-1.14-.31-2.22-1.2-3.26-2.65-1.03-1.44-1.52-2.8-1.47-4.09.04-1.28.52-2.41,1.42-3.38.56-.59,1.95-1.68,4.16-3.26l13.94-9.96-3.72-5.21h0Zm-3.5,51.5l28.57-12.92,2.64,5.83-23.7,10.72,6.53,14.45-4.87,2.2-9.17-20.28h0Zm19.96,59.64l-1.55-6.72,6.4-4.28-2.85-12.36-7.6-.94-1.52-6.6,33.57,4.85,1.52,6.59-27.96,19.45h0Zm9.59-14.22l10.41-6.91-12.36-1.53,1.95,8.44h0Zm-8.41,25.44l31.61-.89.17,6.19-20.81,13.6,21.18-.6.17,5.92-31.61.89-.18-6.39,20.42-13.39-20.78.59-.17-5.91h0Zm8.13,56.23l5.26.95-2.45,13.51-12.41-2.25c-1.04-1.54-1.82-3.65-2.34-6.33-.52-2.67-.55-5.28-.08-7.85.59-3.25,1.79-5.96,3.59-8.13,1.81-2.16,4.1-3.62,6.86-4.38,2.76-.76,5.65-.86,8.64-.32,3.24.59,6,1.79,8.28,3.6,2.27,1.82,3.85,4.16,4.73,7.01.67,2.19.74,4.76.2,7.73-.7,3.86-2.06,6.73-4.08,8.61-2.02,1.87-4.51,2.86-7.49,2.96l-.04-6.47c1.61-.16,2.97-.76,4.08-1.81,1.1-1.04,1.82-2.47,2.15-4.28.5-2.74.02-5.07-1.43-7.01-1.45-1.93-3.89-3.21-7.32-3.83-3.7-.67-6.62-.36-8.77.94-2.15,1.31-3.46,3.28-3.94,5.94-.24,1.31-.22,2.68.06,4.09.27,1.42.7,2.66,1.27,3.75l3.95.72,1.3-7.17Z"/>
  <path class="cls-6" d="m370.08,629.33l5.56,3.18-8.52,14.87c-1.35,2.36-2.16,3.93-2.42,4.7-.41,1.26-.37,2.48.12,3.67.5,1.19,1.51,2.22,3.04,3.1,1.55.89,2.91,1.24,4.07,1.05,1.16-.19,2.08-.71,2.78-1.55.7-.85,1.67-2.35,2.91-4.52l8.7-15.19,5.56,3.18-8.26,14.43c-1.89,3.3-3.37,5.54-4.45,6.73-1.08,1.19-2.29,2.02-3.63,2.5-1.34.48-2.83.61-4.49.4-1.67-.22-3.58-.94-5.74-2.18-2.61-1.5-4.42-2.93-5.42-4.31-1-1.38-1.62-2.78-1.85-4.2-.23-1.42-.16-2.72.2-3.93.54-1.78,1.69-4.21,3.45-7.28l8.39-14.65h0Zm35.55,52.23l8.73-30.39,5.96,1.71,6.66,23.96,5.85-20.37,5.69,1.63-8.73,30.39-6.15-1.77-6.58-23.51-5.74,19.98-5.69-1.63h0Zm55.92,10.57l.65-31.61,10.24.21c3.88.08,6.4.29,7.57.63,1.8.52,3.3,1.58,4.48,3.19,1.19,1.61,1.76,3.68,1.71,6.2-.04,1.94-.43,3.56-1.15,4.87-.73,1.31-1.65,2.33-2.74,3.06-1.1.73-2.21,1.21-3.33,1.43-1.53.27-3.73.38-6.62.32l-4.15-.09-.24,11.92-6.4-.13h0Zm6.94-26.14l-.18,9.01,3.48.07c2.51.05,4.18-.08,5.04-.4.85-.31,1.53-.82,2.02-1.52.49-.7.75-1.51.77-2.45.02-1.15-.3-2.11-.95-2.88-.66-.76-1.5-1.25-2.53-1.47-.75-.16-2.28-.26-4.57-.31l-3.07-.06h0Zm71.98,16.72l-6.72,1.55-4.28-6.4-12.36,2.85-.94,7.6-6.6,1.52,4.85-33.57,6.59-1.52,19.45,27.96h0Zm-14.22-9.59l-6.91-10.41-1.53,12.36,8.44-1.95h0Zm40.68-1.28l-15.64-27.48,8.34-4.74,15.59,15.94-5.8-21.51,8.35-4.75,15.64,27.48-5.14,2.93-12.33-21.62,6.89,24.72-5.35,3.04-17.7-18.57,12.29,21.65-5.14,2.93Z"/>
  <polygon class="cls-6" points="314.45 577.05 319.18 591.7 334.57 591.67 322.1 600.7 326.88 615.33 314.45 606.25 302.01 615.33 306.8 600.7 294.33 591.67 309.72 591.7 314.45 577.05"/>
  <polygon class="cls-6" points="634.74 577.05 639.46 591.7 654.86 591.67 642.39 600.7 647.17 615.33 634.74 606.25 622.3 615.33 627.09 600.7 614.62 591.67 630.01 591.7 634.74 577.05"/>
  <path class="cls-3" d="m238.18,476.83c0-130.24,105.58-235.82,235.82-235.82s235.82,105.58,235.82,235.82-105.58,235.82-235.82,235.82-235.82-105.58-235.82-235.82h0Zm125.97-215.77c33.9-17.29,71.41-26.3,109.85-26.3s78.69,9.69,113.5,28.21l-112.35-157.5-111,155.59h0Zm306.73,74.92v-56.03h-56.03c21.59,15.48,40.55,34.44,56.03,56.03h0Zm-52.4,335.08h52.4v-53.38c-14.6,20.37-32.31,38.4-52.4,53.38h0Zm-341.36-391.11v56.03c15.48-21.59,34.44-40.55,56.03-56.03h-56.03Zm0,337.73v53.38h52.4c-20.1-14.98-37.8-33.01-52.4-53.38h0Zm593.45-142.36c0-218.39-177.04-395.42-395.42-395.42S79.73,256.94,79.73,475.32s177.04,395.42,395.42,395.42,395.42-177.04,395.42-395.42h0Zm-396.57,243.59c-37.26,0-73.67-8.47-106.78-24.77l107.92,151.06,109.2-152.85c-34.02,17.46-71.71,26.57-110.35,26.57h0Zm242.08-242.08c0,37.45-8.55,74.04-25.04,107.32l168.02-106.38-168.45-109.14c16.77,33.5,25.47,70.41,25.47,108.2h0Zm-484.15,0c0-36.96,8.33-73.09,24.41-106.03l-165.1,106.97,164.69,104.27c-15.82-32.72-24.01-68.57-24.01-105.21Z"/>
  <path class="cls-3" d="m63.83,475.32c0-227.17,184.15-411.32,411.32-411.32s411.32,184.15,411.32,411.32-184.15,411.32-411.32,411.32S63.83,702.49,63.83,475.32h0Zm840.46,0c0-237.01-192.13-429.14-429.14-429.14S46.01,238.31,46.01,475.32s192.13,429.14,429.14,429.14,429.14-192.13,429.14-429.14Z"/>
  <circle class="cls-7" cx="474" cy="476.83" r="168.25" transform="translate(-198.34 474.83) rotate(-45)"/>
  <g>
    <g>
      <g>
        <path class="cls-4" d="m461.16,463.99c-23.79,22.29-89.43-68.92-86.58-86.58,17.66-2.85,108.87,62.79,86.58,86.58Z"/>
        <path class="cls-4" d="m486.84,489.67c-22.29,23.79,68.92,89.43,86.58,86.58,2.85-17.66-62.79-108.87-86.58-86.58Z"/>
      </g>
      <g>
        <path class="cls-4" d="m461.16,489.67c22.29,23.79-68.92,89.43-86.58,86.58-2.85-17.66,62.79-108.87,86.58-86.58Z"/>
        <path class="cls-4" d="m486.84,463.99c23.79,22.29,89.43-68.92,86.58-86.58-17.66-2.85-108.87,62.79-86.58,86.58Z"/>
      </g>
    </g>
    <g>
      <path class="cls-2" d="m473.81,326.26c-19.23,12.68-33.42,24.23-33.42,24.23,0,0-16.52,11.46-9.1,29.67,7.08,17.38,39.68,30.77,42.61,31.95l.11.04.11-.04c2.94-1.18,35.53-14.56,42.61-31.95,7.42-18.21-9.1-29.67-9.1-29.67,0,0-14.19-11.55-33.42-24.23l-.19-.13-.19.13Z"/>
      <path class="cls-2" d="m473.81,627.4c-19.23-12.68-33.42-24.23-33.42-24.23,0,0-16.52-11.47-9.1-29.67,7.08-17.38,39.68-30.77,42.61-31.95l.11-.04.11.04c2.94,1.18,35.53,14.56,42.61,31.95,7.42,18.21-9.1,29.67-9.1,29.67,0,0-14.19,11.55-33.42,24.23l-.19.13-.19-.13Z"/>
    </g>
    <g>
      <path class="cls-2" d="m323.43,477.02c12.68,19.23,24.23,33.42,24.23,33.42,0,0,11.46,16.52,29.67,9.1,17.38-7.08,30.77-39.68,31.95-42.61l.04-.11-.04-.11c-1.18-2.94-14.56-35.53-31.95-42.61-18.21-7.42-29.67,9.11-29.67,9.11,0,0-11.55,14.19-24.23,33.42l-.13.19.13.19Z"/>
      <path class="cls-2" d="m624.57,477.02c-12.68,19.23-24.23,33.42-24.23,33.42,0,0-11.46,16.52-29.67,9.1-17.38-7.08-30.77-39.68-31.95-42.61l-.04-.11.04-.11c1.18-2.94,14.57-35.53,31.95-42.61,18.21-7.42,29.67,9.11,29.67,9.11,0,0,11.55,14.19,24.23,33.42l.13.19-.13.19Z"/>
    </g>
  </g>
</svg>